<?xml version="1.0" standalone="no"?>
<!DOCTYPE svg PUBLIC "-//W3C//DTD SVG 20010904//EN"
 "http://www.w3.org/TR/2001/REC-SVG-20010904/DTD/svg10.dtd">
<svg version="1.0" xmlns="http://www.w3.org/2000/svg"
 width="700.000000pt" height="700.000000pt" viewBox="0 0 700.000000 700.000000"
 preserveAspectRatio="xMidYMid meet">
<metadata>
Created by potrace 1.11, written by Peter Selinger 2001-2013
</metadata>
<g transform="translate(0.000000,700.000000) scale(0.100000,-0.100000)"
fill="#000000" stroke="none">
<path d="M0 3500 l0 -3500 3500 0 3500 0 0 3500 0 3500 -3500 0 -3500 0 0
-3500z m2597 2181 c294 -61 493 -173 751 -425 l152 -149 153 149 c255 250 452
362 750 426 147 31 399 31 549 0 424 -88 777 -360 971 -747 191 -381 189 -853
-5 -1240 -101 -200 -90 -188 -1201 -1302 -764 -765 -1053 -1049 -1091 -1069
-43 -24 -63 -28 -126 -28 -63 0 -83 4 -126 27 -69 39 -2085 2055 -2172 2174
-116 159 -208 371 -248 578 -26 133 -24 377 5 512 126 599 597 1038 1193 1113
113 14 328 5 445 -19z"/>
<path d="M2195 5143 c-126 -20 -273 -82 -372 -157 -352 -266 -436 -760 -194
-1126 38 -58 259 -284 960 -985 l911 -910 928 930 c691 693 936 945 961 987
131 225 156 486 70 722 -68 188 -208 351 -376 439 -270 141 -611 129 -861 -29
-32 -20 -167 -145 -307 -283 -282 -279 -303 -294 -415 -294 -112 0 -132 14
-430 308 l-265 261 -105 52 c-58 28 -132 58 -165 67 -59 16 -279 28 -340 18z
m2493 -558 c69 -21 129 -69 166 -135 27 -48 31 -64 31 -130 0 -59 -6 -85 -24
-120 -33 -64 -1166 -1198 -1235 -1237 -69 -38 -177 -40 -246 -4 -55 29 -640
606 -677 669 -19 31 -27 63 -31 111 -6 95 16 158 78 220 56 56 117 81 199 81
101 0 143 -28 359 -243 l192 -191 473 471 c259 259 483 476 497 484 77 39 141
46 218 24z"/>
</g>
</svg>
